<svg xmlns="http://www.w3.org/2000/svg" xmlns:xlink="http://www.w3.org/1999/xlink" width="350" height="350" viewBox="0 0 350 350">
  <defs>
    <clipPath id="clip-Web_1920_1">
      <rect width="350" height="350"/>
    </clipPath>
  </defs>
  <g id="Web_1920_1" data-name="Web 1920 – 1" clip-path="url(#clip-Web_1920_1)">
    <rect width="350" height="350" fill="#fff"/>
    <path id="Path_1" data-name="Path 1" d="M601.465,234.109l.041,81.513H570.667l.187-87.686h33.7s12-.971,20.664,8.547,8.3,16.753,8.3,16.753l.981,35.11L648.2,339.009h28.775l21.43-89.953,21.8,89.953h29.188l35.531-134.872H755.992L734.88,293.731l-22.223-89.594H684.089l-21.173,89.384a44.072,44.072,0,0,1-1.193-5.068c-.215-1.753-1.175-5.334-1.175-5.334l.764-5.924.634-5.974.158-8.135-.748-11.6-1.755-7.029-2.718-8.173-2.654-5.135-3.8-5.465-4.361-5.04-4.054-3.662-4.12-2.852-4.787-2.675-4.821-2.186-5.883-2.156-5.379-1.207-5.475-.711-7.612-.13h-60.62V339.009h68.486l7.8-1.552,6.213-2.053,4.515-1.908,4.872-2.636,3.927-2.6-10.353-37.58-.837-34.46-1.162-5.464-2.307-5.094-2.8-3.135-3.388-3.036-3.291-2.053-4.75-1.76L606.2,234.6Z" transform="translate(-485.122 -92.073)"/>
  </g>
</svg>
